<svg width="230" height="40" viewBox="0 0 230 40" fill="none" xmlns="http://www.w3.org/2000/svg">
<path d="M226.156 1.5L226.309 1.50781C227.065 1.58463 227.656 2.22335 227.656 3V29.0713C227.656 29.8997 226.984 30.5713 226.156 30.5713H220.745C219.916 30.5713 219.245 29.8997 219.245 29.0713V3L219.252 2.84668C219.329 2.09028 219.968 1.5 220.745 1.5H226.156Z" fill="white" stroke="#5E06DD" stroke-width="3" stroke-linejoin="round"/>
<path d="M207.719 8.49222C211.388 8.49222 214.304 9.72152 216.197 12.1201C218.054 14.4728 218.736 17.7112 218.493 21.3701C218.441 22.1583 217.786 22.7715 216.996 22.7715H214.916L217.01 24.8907C217.567 25.4557 217.589 26.3581 217.057 26.9483C214.846 29.4055 211.647 30.7823 207.86 30.7823C204.514 30.7822 201.645 29.7061 199.606 27.7041C197.566 25.7006 196.487 22.8964 196.487 19.6905C196.487 16.424 197.606 13.5986 199.637 11.5879C201.667 9.57934 204.497 8.49233 207.719 8.49222ZM205.996 22.7715C206.598 23.2923 207.384 23.5654 208.317 23.5655C209.3 23.5655 210.242 23.2941 211.073 22.7715H205.996ZM207.755 15.4629C206.919 15.463 206.295 15.7366 205.836 16.1719C205.713 16.2881 205.597 16.4219 205.488 16.5733H210.029C209.931 16.4106 209.822 16.2687 209.701 16.1494C209.298 15.7519 208.67 15.4629 207.755 15.4629Z" fill="white" stroke="#5E06DD" stroke-width="3" stroke-linejoin="round"/>
<path d="M186.754 8.49222C190.422 8.49222 193.338 9.72152 195.231 12.1201C197.088 14.4728 197.77 17.7112 197.527 21.3701C197.475 22.1583 196.82 22.7715 196.03 22.7715H193.95L196.044 24.8907C196.602 25.4557 196.623 26.3581 196.092 26.9483C193.88 29.4055 190.682 30.7823 186.895 30.7823C183.548 30.7822 180.679 29.7061 178.641 27.7041C176.601 25.7006 175.522 22.8964 175.522 19.6905C175.522 16.424 176.64 13.5986 178.672 11.5879C180.701 9.57934 183.531 8.49233 186.754 8.49222ZM185.03 22.7715C185.632 23.2923 186.419 23.5654 187.352 23.5655C188.334 23.5655 189.277 23.2941 190.107 22.7715H185.03ZM186.789 15.4629C185.954 15.463 185.33 15.7366 184.87 16.1719C184.748 16.2881 184.631 16.4219 184.523 16.5733H189.064C188.965 16.4106 188.856 16.2687 188.735 16.1494C188.333 15.7519 187.704 15.4629 186.789 15.4629Z" fill="white" stroke="#5E06DD" stroke-width="3" stroke-linejoin="round"/>
<path d="M160.514 1.5L160.668 1.50781C161.424 1.58463 162.014 2.22335 162.014 3V9.80176C163.438 8.91658 165.142 8.47953 167.032 8.45703H167.05C169.516 8.45703 171.67 9.28048 173.204 10.876C174.732 12.4654 175.507 14.6757 175.507 17.1953V29.0713C175.507 29.8997 174.835 30.5713 174.007 30.5713H168.595C167.767 30.5711 167.095 29.8996 167.095 29.0713V18.7764C167.095 17.8733 166.834 17.3133 166.521 16.9873C166.216 16.6698 165.708 16.4128 164.88 16.4111C163.931 16.4261 163.259 16.7772 162.808 17.2939C162.339 17.8321 162.014 18.6639 162.014 19.7607V29.0713C162.014 29.8997 161.343 30.5713 160.514 30.5713H155.103C154.275 30.5713 153.603 29.8997 153.603 29.0713V3L153.611 2.84668C153.688 2.09028 154.327 1.5 155.103 1.5H160.514Z" fill="white" stroke="#5E06DD" stroke-width="3" stroke-linejoin="round"/>
<path d="M120.831 2.97577L120.956 2.98065C121.576 3.03238 122.106 3.46526 122.275 4.07343L125.99 17.4172L129.68 4.07635L129.719 3.95624C129.934 3.37132 130.494 2.97577 131.126 2.97577H136.572L136.697 2.98065C137.317 3.03226 137.846 3.46365 138.017 4.0705L141.762 17.4338L145.456 4.07635L145.495 3.95624C145.711 3.37131 146.27 2.97577 146.902 2.97577H152.595L152.773 2.98651C153.186 3.03614 153.564 3.25613 153.81 3.59784C154.092 3.98828 154.17 4.49033 154.018 4.94745L145.866 29.5432C145.663 30.1569 145.089 30.5715 144.442 30.5715H138.716C138.044 30.5715 137.454 30.1257 137.271 29.4797L133.745 17.0012L130.142 29.4875C129.957 30.1295 129.369 30.5715 128.701 30.5715H122.974C122.326 30.5713 121.753 30.1558 121.55 29.5412L113.433 4.9455C113.282 4.48853 113.36 3.98681 113.642 3.59686C113.924 3.20678 114.376 2.97577 114.857 2.97577H120.831Z" fill="white" stroke="#5E06DD" stroke-width="3" stroke-linejoin="round"/>
<path d="M89.7255 8.66794L89.8407 8.67282C90.4158 8.71701 90.919 9.08846 91.1269 9.63376L94.6054 18.7627L97.7236 9.68063L97.7665 9.56931C98.003 9.02544 98.5419 8.66794 99.1425 8.66794H104.553L104.737 8.67966C105.163 8.73224 105.548 8.96502 105.793 9.32419C106.072 9.73469 106.13 10.2569 105.948 10.7187L97.6562 31.7304L97.6532 31.7373C96.9056 33.6062 95.8361 35.1051 94.3935 36.1308C92.9433 37.1619 91.2295 37.6338 89.3388 37.6338C86.9915 37.6337 85.0741 36.953 83.2587 35.4677C82.6874 35.0001 82.5409 34.1859 82.914 33.5488L85.1982 29.6484L85.289 29.5117C85.5167 29.2054 85.8543 28.9961 86.2343 28.9297C86.6686 28.8537 87.1144 28.9726 87.453 29.2549C88.1105 29.8027 88.5204 29.9257 88.9521 29.9258C89.2534 29.9258 89.4458 29.8541 89.5859 29.7597C89.7331 29.6604 89.9153 29.4726 90.0888 29.1025L90.1054 29.0683L90.3232 28.6328L82.7568 10.7529C82.5608 10.2897 82.6108 9.75907 82.8886 9.33981C83.1665 8.92053 83.6356 8.66794 84.1386 8.66794H89.7255Z" fill="white" stroke="#5E06DD" stroke-width="3" stroke-linejoin="round"/>
<path d="M71.0593 1.5L71.2126 1.50781C71.969 1.58464 72.5593 2.22336 72.5593 3V13.6357L76.905 9.1582L77.0153 9.05566C77.2845 8.82908 77.6261 8.70313 77.9811 8.70312H84.1305C84.7303 8.7033 85.2721 9.06105 85.5085 9.6123C85.7448 10.1636 85.63 10.8028 85.2165 11.2373L79.0954 17.668L85.7184 28.2773C86.007 28.7397 86.0227 29.3222 85.7585 29.7988C85.4941 30.2756 84.9911 30.5713 84.446 30.5713H78.0514C77.522 30.5713 77.0316 30.2922 76.7614 29.8369L73.2077 23.8506L72.5593 24.5371V29.0713C72.5593 29.8997 71.8877 30.5713 71.0593 30.5713H65.6481C64.8197 30.5713 64.1481 29.8997 64.1481 29.0713V3L64.1559 2.84668C64.2327 2.09028 64.8715 1.5 65.6481 1.5H71.0593Z" fill="white" stroke="#5E06DD" stroke-width="3" stroke-linejoin="round"/>
<path d="M53.7558 8.49222C57.7902 8.49234 61.1812 10.117 63.1904 13.1309C63.6379 13.8023 63.4738 14.7078 62.8193 15.1797L59.165 17.8145C58.5184 18.2806 57.6203 18.1598 57.1201 17.5391C56.4216 16.672 55.4914 16.1385 54.2471 16.0967L53.9941 16.0948C53.9848 16.0949 53.9751 16.0948 53.9658 16.0948C53.057 16.0949 52.3454 16.4366 51.8467 16.9932C51.3373 17.5617 50.9687 18.4508 50.9687 19.6553C50.9688 20.8818 51.34 21.7913 51.8535 22.3731C52.3553 22.9414 53.0657 23.2851 53.9658 23.2852C55.4729 23.2852 56.467 22.7394 57.0967 21.7598L57.1846 21.6377C57.4029 21.3632 57.7118 21.1724 58.0586 21.1016C58.4547 21.0208 58.8667 21.103 59.2012 21.3301L62.9258 23.8604C63.5426 24.2795 63.7518 25.0815 63.4385 25.7422L63.3691 25.8731C61.4628 29.0502 57.9627 30.7821 53.6855 30.7823C50.477 30.7823 47.6725 29.6933 45.666 27.6973C43.6587 25.7005 42.5577 22.9034 42.5576 19.6905C42.5576 16.4474 43.6551 13.6232 45.6719 11.6065C47.6886 9.58971 50.5128 8.49222 53.7558 8.49222Z" fill="white" stroke="#5E06DD" stroke-width="3" stroke-linejoin="round"/>
<path d="M27.3266 8.66794L27.4799 8.67575C28.2363 8.75257 28.8266 9.39129 28.8266 10.1679V20.498C28.8266 21.4108 29.0846 21.9693 29.3803 22.2861C29.6637 22.5898 30.1245 22.8251 30.8656 22.8271C31.741 22.8127 32.3657 22.4791 32.7934 21.9707C33.2427 21.4364 33.557 20.6057 33.557 19.5146V10.1679L33.5648 10.0146C33.6417 9.25824 34.2804 8.66794 35.057 8.66794H40.433L40.5863 8.67575C41.3425 8.75276 41.933 9.39143 41.933 10.1679V29.0713C41.933 29.8995 41.2612 30.571 40.433 30.5713H35.057C34.3666 30.5713 33.7863 30.1047 33.6117 29.4697C32.2286 30.3514 30.5725 30.7822 28.7318 30.7822C26.2979 30.7822 24.1737 29.9652 22.6645 28.3662C21.1644 26.7767 20.4154 24.5676 20.4154 22.0439V10.1679L20.4232 10.0146C20.5 9.25822 21.1388 8.66794 21.9154 8.66794H27.3266Z" fill="white" stroke="#5E06DD" stroke-width="3" stroke-linejoin="round"/>
<path d="M8.74812 2.97577L8.90144 2.98358C9.65778 3.06044 10.2481 3.69915 10.2481 4.47577V22.7228H19.2891C20.1175 22.7229 20.7891 23.3944 20.7891 24.2228V29.0715C20.7891 29.8999 20.1175 30.5714 19.2891 30.5715H3.19637C2.36794 30.5715 1.69637 29.8999 1.69637 29.0715V4.47577L1.70418 4.32245C1.78098 3.56605 2.4197 2.97577 3.19637 2.97577H8.74812Z" fill="white" stroke="#5E06DD" stroke-width="3" stroke-linejoin="round"/>
</svg>
