<?xml version="1.0" standalone="no"?>
<!DOCTYPE svg PUBLIC "-//W3C//DTD SVG 20010904//EN"
 "http://www.w3.org/TR/2001/REC-SVG-20010904/DTD/svg10.dtd">
<svg version="1.0" xmlns="http://www.w3.org/2000/svg"
 width="2000.000000pt" height="2000.000000pt" viewBox="0 0 2000.000000 2000.000000"
 preserveAspectRatio="xMidYMid meet">

<g transform="translate(0.000000,2000.000000) scale(0.100000,-0.100000)"
fill="#000000" stroke="none">
<path d="M1950 16345 l0 -1705 1705 0 1705 0 0 1705 0 1705 -1705 0 -1705 0 0
-1705z m2928 -2 l-3 -1218 -1217 -3 -1218 -2 0 1220 0 1220 1220 0 1220 0 -2
-1217z"/>
<path d="M2930 16340 l0 -730 730 0 730 0 0 730 0 730 -730 0 -730 0 0 -730z"/>
<path d="M6340 17805 l0 -245 -245 0 -245 0 0 -1460 0 -1460 245 0 245 0 0
730 0 730 245 0 245 0 0 -245 0 -245 245 0 245 0 -2 -242 -3 -243 -242 -3
-243 -2 0 -246 0 -245 -232 1 c-128 0 -239 1 -245 0 -10 0 -13 -55 -13 -240
l0 -240 -975 0 -975 0 0 -735 0 -735 -245 0 -245 0 0 490 0 490 -245 0 -246 0
2 243 1 242 -241 3 -241 2 0 -245 0 -245 -490 0 -490 0 0 -245 0 -245 735 0
735 0 0 -245 0 -245 -490 0 -490 0 0 -245 0 -245 -245 0 -245 0 0 -730 0 -730
975 0 975 0 0 -240 0 -240 245 0 245 0 0 240 0 240 -245 0 -245 0 0 245 0 245
245 0 245 0 0 245 0 245 -245 0 -245 0 2 243 3 242 488 3 487 2 0 240 0 240
730 0 730 0 0 -245 0 -246 -222 1 c-123 0 -233 1 -245 0 l-23 0 0 -240 0 -240
-245 0 -245 0 0 240 0 240 -240 0 -240 0 0 -240 0 -240 243 -2 242 -3 3 -242
2 -243 -245 0 -245 0 0 -245 0 -245 245 0 245 0 0 -240 0 -240 240 0 240 0 0
240 0 240 245 0 245 0 0 -490 0 -490 -485 0 -485 0 0 -240 0 -240 485 0 485 0
2 243 3 242 243 0 242 0 0 248 0 247 245 0 245 0 0 -490 0 -490 240 0 240 0 2
243 3 242 488 3 487 2 0 240 0 240 -245 0 -245 0 0 245 0 245 -485 0 -485 0
-2 488 -3 487 -242 3 -243 2 0 485 0 485 -245 0 -245 0 0 245 0 245 730 0 730
0 0 245 0 245 245 0 245 0 0 245 0 245 245 0 245 0 0 -245 0 -245 -242 -2
-243 -3 -3 -242 -2 -243 -240 0 -240 0 0 -245 0 -245 240 0 240 0 0 245 0 245
245 0 245 0 0 245 0 245 245 0 245 0 0 -490 0 -490 240 0 240 0 0 245 0 245
490 0 490 0 0 -975 0 -975 -240 0 -240 0 0 -485 0 -485 240 0 240 0 0 240 0
240 245 0 245 0 0 490 0 490 245 0 245 0 0 240 0 240 -245 0 -245 0 0 245 0
245 243 2 242 3 3 243 2 242 240 0 240 0 0 245 0 245 -240 0 -240 0 0 490 0
490 240 0 240 0 0 240 0 240 -240 0 -240 0 -2 -242 -3 -243 -242 -3 -243 -2 0
245 0 245 243 2 242 3 3 243 2 242 245 0 245 0 0 -245 0 -245 240 0 240 0 0
-240 c0 -207 2 -240 15 -240 8 0 110 0 225 0 116 0 219 0 230 0 19 0 20 7 20
240 l0 240 243 2 242 3 3 733 2 733 243 -2 242 -1 3 241 2 241 -245 0 -245 0
-2 -242 -3 -243 -242 -3 -243 -2 0 -730 0 -730 -242 2 -243 3 -3 973 -2 972
245 0 245 0 0 490 0 490 -245 0 -245 0 0 -245 0 -245 -240 0 -240 0 0 -245 0
-245 -245 0 -245 0 0 245 0 245 240 0 240 0 0 245 0 245 -485 0 -485 0 0 -730
0 -730 245 0 245 0 0 -245 0 -245 -245 0 -245 0 -2 241 -3 240 -242 -1 -243
-1 0 246 0 245 -242 2 -243 3 -3 488 -2 487 -240 0 -240 0 -2 -242 -3 -243
-242 -3 -243 -2 0 -245 0 -245 -245 0 -245 0 0 245 0 245 -490 0 -490 0 0 245
0 245 -240 0 -240 0 0 -245 0 -245 -245 0 -245 0 0 245 0 245 -245 0 -245 0 0
-245z m1470 -975 l0 -239 223 -3 c123 -2 231 -2 240 0 15 3 17 28 17 243 l0
239 245 0 245 0 0 -485 0 -485 245 0 245 0 0 -245 0 -245 -490 0 -490 0 2
-242 3 -243 243 -3 242 -2 0 -240 0 -240 245 0 245 0 0 240 0 240 245 0 245 0
0 -240 0 -240 240 0 240 0 0 240 0 240 -242 2 -243 3 -3 243 -2 242 250 0 250
0 0 -245 0 -245 240 0 240 0 0 490 0 490 245 0 245 0 0 -490 0 -490 -245 0
-245 0 0 -485 0 -485 -240 0 -240 0 0 -22 c-1 -13 0 -123 0 -245 l1 -223 -251
0 -250 0 0 485 0 485 -240 0 -240 0 0 -240 0 -240 -245 0 -245 0 0 240 0 240
-245 0 -245 0 0 245 0 245 -242 2 -243 3 -3 243 -2 242 -240 0 -240 0 0 245 0
245 -245 0 -245 0 0 245 c0 135 3 244 8 244 4 -1 114 -1 245 0 l237 1 0 240 0
240 245 0 245 0 0 -240z m2440 -245 l-1 -485 -249 0 -250 0 0 478 c0 263 3
482 7 485 3 4 116 7 250 7 l243 0 0 -485z m-2442 -1707 l-3 -243 -242 -3 -243
-2 0 245 0 245 245 0 245 0 -2 -242z m-978 -973 l0 -245 -242 -2 -243 -3 -3
-242 -2 -243 -730 0 -730 0 0 245 0 245 730 0 730 0 0 245 0 245 245 0 245 0
0 -245z m-3412 -1952 l2 -243 -245 0 -245 0 0 245 0 245 243 -2 242 -3 3 -242z
m3412 -978 l0 -245 -245 0 -245 0 0 245 0 245 245 0 245 0 0 -245z"/>
<path d="M13660 17805 l0 -245 245 0 245 0 0 245 0 245 -245 0 -245 0 0 -245z"/>
<path d="M14640 16345 l0 -1705 1705 0 1705 0 0 1705 0 1705 -1705 0 -1705 0
0 -1705z m2920 -5 l0 -1220 -1217 2 -1218 3 -3 1218 -2 1217 1220 0 1220 0 0
-1220z"/>
<path d="M15610 16340 l0 -730 730 0 730 0 0 730 0 730 -730 0 -730 0 0 -730z"/>
<path d="M13658 14878 l-3 -243 -242 -3 -243 -2 0 -240 0 -240 -242 -2 -243
-3 -3 -487 -2 -488 -240 0 -240 0 0 -245 0 -245 240 0 240 0 0 -245 0 -245
-239 0 c-150 0 -241 -4 -243 -10 -1 -5 -2 -224 0 -485 l2 -475 485 0 485 0 0
-245 0 -245 -245 0 -245 0 0 -485 c0 -424 2 -485 15 -485 8 0 110 0 225 0 116
0 219 0 230 0 20 0 20 7 20 485 l0 485 243 2 242 3 0 485 0 485 -242 3 -243 2
0 245 0 245 245 0 245 0 0 -245 0 -245 245 0 245 0 0 485 0 485 -245 0 -245 0
0 245 0 245 730 0 730 0 0 -245 0 -245 -240 0 -240 0 0 -730 0 -730 -245 0
-245 0 0 -485 0 -485 243 -2 242 -3 0 -245 0 -245 -242 -3 -243 -2 0 -240 0
-240 485 0 485 0 0 -245 0 -245 -240 0 -240 0 0 -245 0 -245 240 0 240 0 0
-240 0 -240 245 0 245 0 0 240 0 240 -242 2 -243 3 -3 243 -2 242 245 0 245 0
0 485 0 485 -245 0 -245 0 2 1223 3 1222 240 0 240 0 3 -242 2 -243 245 0 245
0 0 246 c0 228 1 245 18 243 9 -1 117 -1 240 0 l222 1 0 240 0 240 -240 0
-240 0 0 -239 c0 -209 -2 -240 -16 -245 -9 -3 -119 -6 -245 -6 l-229 0 0 245
0 245 243 2 242 3 3 243 2 242 -245 0 -245 0 0 245 0 245 975 0 975 0 0 -735
0 -735 -481 0 c-265 0 -483 -1 -485 -2 -1 -2 -4 -110 -6 -241 l-3 -237 488 0
487 0 0 -490 0 -490 -245 0 -245 0 0 -245 0 -245 -485 0 -485 0 0 -240 0 -240
239 0 c209 0 240 -2 245 -16 3 -9 6 -119 6 -245 l0 -229 -245 0 -245 0 0 -490
0 -490 243 0 242 0 -3 245 -3 245 246 0 245 0 0 -490 0 -491 -227 1 c-126 0
-234 1 -240 0 -10 0 -13 -104 -13 -485 l0 -485 240 0 240 0 2 488 3 487 488 3
487 2 0 240 0 240 -245 0 -245 0 0 245 0 245 245 0 245 0 0 485 0 485 -245 0
-245 0 0 250 0 250 245 0 245 0 0 1705 0 1705 -245 0 -245 0 0 245 0 245
-1217 -2 -1218 -3 -3 -242 -2 -243 -245 0 -245 0 0 245 0 245 -240 0 -240 0 0
485 0 485 -245 0 -245 0 -2 -242z m492 -973 l0 -245 -490 0 -490 0 0 245 0
245 490 0 490 0 0 -245z m3410 -4880 l0 -245 -245 0 -245 0 0 245 0 245 245 0
245 0 0 -245z"/>
<path d="M16589 13166 c-2 -2 -3 -113 -1 -245 l3 -241 239 0 240 0 0 245 0
245 -238 0 c-131 0 -241 -2 -243 -4z"/>
<path d="M7320 11950 l0 -240 243 -2 c185 -2 242 -6 243 -15 1 -7 2 -116 3
-243 l1 -230 240 0 240 0 2 -242 3 -243 243 -3 242 -2 0 -240 0 -240 245 0
245 0 -2 -247 -3 -248 -242 -3 -243 -2 0 -240 0 -240 -242 -2 -243 -3 -3 -487
-2 -488 -485 0 -485 0 -2 488 -3 487 -485 0 -485 0 -3 -242 -2 -243 245 0 245
0 0 -245 0 -245 -245 0 -245 0 0 -485 0 -485 -242 -2 -243 -3 -3 -242 -2 -243
-240 0 -240 0 0 -245 0 -245 -245 0 -245 0 0 245 0 245 239 0 240 0 3 23 c2
12 2 122 0 245 l-3 222 -484 0 -485 0 0 975 0 975 243 -2 242 -3 3 -242 2
-243 243 0 242 0 -3 245 -3 245 -239 0 -240 0 0 245 0 245 240 0 240 0 0 240
0 240 -240 0 -240 0 -2 -242 c-3 -235 -4 -243 -23 -244 -11 -1 -120 -2 -242
-3 l-223 -1 0 -240 0 -240 -490 0 -491 0 3 240 3 240 -242 0 -243 0 0 -240 0
-240 -245 0 -245 0 0 245 0 245 245 0 245 0 0 240 0 240 -490 0 -490 0 0 -485
0 -485 245 0 245 0 0 -490 0 -490 -245 0 -245 0 0 -240 0 -240 245 0 245 0 0
240 0 240 245 0 245 0 -2 -242 -3 -243 -242 -3 -243 -2 0 -240 0 -240 -245 0
-245 0 0 -245 0 -245 490 0 490 0 0 -245 0 -245 -490 0 -490 0 0 -245 0 -245
730 0 730 0 0 490 0 490 -240 0 -240 0 0 490 0 491 223 -1 c122 0 230 -1 240
0 16 0 17 30 17 485 l0 485 245 0 245 0 0 -490 0 -490 -240 0 -240 0 0 -485 0
-485 485 0 485 0 0 -490 0 -490 730 0 730 0 0 -730 0 -730 490 0 490 0 0 -245
0 -245 -245 0 -245 0 0 -245 0 -246 -242 2 -243 1 -3 -241 -2 -241 245 0 245
0 0 -490 0 -490 490 0 490 0 0 245 0 245 240 0 240 0 0 245 0 245 245 0 245 0
0 485 0 485 -240 0 -240 0 -2 -242 -3 -243 -242 -3 -243 -2 -2 732 -3 733
-242 3 -243 2 0 245 0 245 245 0 245 0 0 240 0 240 -245 0 -245 0 0 245 0 245
245 0 245 0 0 490 0 490 243 -2 242 -3 3 -972 2 -972 224 -3 c122 -2 230 -2
239 0 16 3 17 81 19 975 l3 972 243 3 242 2 0 245 0 245 245 0 245 -1 0 -244
0 -245 243 -2 242 -3 2 -220 c1 -121 3 -230 3 -242 l0 -23 245 0 245 0 0 -490
0 -490 240 0 240 0 0 -730 0 -730 -242 2 -243 3 -3 243 -2 242 -240 0 -240 0
0 -490 0 -490 485 0 485 0 0 -245 0 -246 -240 3 -240 3 0 -242 0 -243 -250 0
-250 0 0 243 0 242 -240 -3 -240 -3 0 491 0 490 -245 0 -245 0 0 -730 0 -730
488 -2 487 -3 3 -242 2 -243 245 0 245 0 0 -245 0 -245 240 0 240 0 2 733 3
732 243 3 242 3 0 -735 0 -736 245 0 245 0 0 245 0 245 240 0 240 0 0 245 0
245 -240 0 -240 0 0 245 0 245 485 0 485 0 0 730 0 730 -245 0 -245 0 2 243 3
242 733 3 732 2 0 -490 0 -490 -245 0 -245 0 0 -245 0 -245 490 0 490 0 -2
-242 -3 -243 -487 -3 -488 -2 0 -240 0 -240 -242 -2 -243 -3 -3 -242 -2 -243
490 0 490 0 0 -245 0 -245 730 0 730 0 0 490 0 490 -485 0 -485 0 0 245 0 245
236 0 c130 -1 238 0 240 2 2 2 4 111 4 241 l1 237 245 0 244 0 0 -240 0 -240
1203 -2 c662 -2 1211 -2 1220 0 15 3 17 27 17 243 l0 239 -730 0 -730 0 0 245
0 245 240 0 240 0 0 245 0 245 245 0 245 0 0 240 0 240 -227 1 c-126 1 -235 2
-243 3 -13 1 -15 37 -18 244 l-2 242 -240 0 -240 0 0 245 0 245 240 0 240 0 0
245 0 245 -240 0 -240 0 0 245 0 245 -975 0 -975 0 0 -245 0 -245 485 0 485 0
0 -245 0 -245 -975 0 -975 0 0 245 0 245 245 0 245 0 0 245 0 245 -245 0 -245
0 0 240 0 240 -245 0 -245 0 0 245 0 245 -240 0 -240 0 -2 -242 -3 -243 -487
-3 -488 -2 0 735 0 735 -242 -2 -243 -3 -3 -242 -2 -243 -485 0 -485 0 0 -245
0 -245 -245 0 -245 0 0 245 0 245 240 0 240 0 0 245 0 245 -240 0 -240 0 0
245 0 245 485 0 485 0 0 240 0 240 -239 0 c-202 0 -240 2 -245 15 -3 8 -6 229
-6 490 l0 475 245 0 245 0 0 245 0 245 -245 0 -245 0 0 240 0 240 -1215 0
-1215 0 0 -240z m1950 -730 l0 -490 -245 0 -245 0 0 245 0 245 -245 0 -245 0
0 245 0 245 490 0 490 0 0 -490z m0 -2195 l0 -245 -245 0 -245 0 0 245 0 245
245 0 245 0 0 -245z m1460 -1220 l0 -485 245 0 245 0 0 -245 0 -245 -245 0
-245 0 0 245 0 245 -490 0 -490 0 2 243 3 242 243 3 242 2 0 240 0 240 245 0
245 0 0 -485z m-2440 -241 l0 -244 -245 0 -245 0 0 238 c0 131 3 242 7 246 4
3 114 6 245 6 l238 -1 0 -245z m-1460 -489 l0 -245 -245 0 -245 0 0 -245 0
-245 -245 0 -245 0 0 245 0 245 245 0 245 0 0 245 0 245 245 0 245 0 0 -245z
m6340 0 l0 -245 -245 0 -245 0 0 -245 0 -245 245 0 245 0 0 -245 0 -245 -730
0 -730 0 0 -485 0 -485 -245 0 -245 0 0 730 0 730 485 0 485 0 0 245 0 245
245 0 245 0 0 245 0 245 245 0 245 0 0 -245z m2930 -490 l0 -245 -245 0 -245
0 0 245 0 245 245 0 245 0 0 -245z m-490 -1465 l0 -730 -730 0 -730 0 0 730 0
730 730 0 730 0 0 -730z m-8780 -1945 l0 -245 245 0 245 0 0 -245 0 -245 -245
0 -245 0 0 245 0 245 -245 0 -245 0 0 238 c0 131 3 242 7 245 3 4 114 7 245 7
l238 0 0 -245z"/>
<path d="M14640 5120 l0 -240 240 0 240 0 0 240 0 240 -240 0 -240 0 0 -240z"/>
<path d="M15610 10975 l0 -245 488 0 487 0 -3 245 -3 245 -484 0 -485 0 0
-245z"/>
<path d="M11708 10488 l-3 -243 -242 -3 -243 -2 0 -240 0 -240 245 0 245 0 0
245 0 245 240 0 240 0 0 240 0 240 -240 0 -240 0 -2 -242z"/>
<path d="M11727 9752 c-15 -3 -17 -28 -17 -243 l0 -239 240 0 240 0 0 240 0
239 -223 3 c-123 2 -231 2 -240 0z"/>
<path d="M13170 9510 l0 -240 -242 -2 -243 -3 0 -485 0 -485 243 -3 242 -2 0
-240 0 -240 245 0 245 0 0 970 0 970 -245 0 -245 0 0 -240z"/>
<path d="M4880 8050 l0 -240 240 0 240 0 0 240 0 240 -240 0 -240 0 0 -240z"/>
<path d="M17560 6830 l0 -490 -245 0 -245 0 2 -242 3 -243 243 -3 242 -2 0
-485 0 -485 -242 -2 -243 -3 -3 -242 -2 -243 490 0 490 0 0 730 0 730 -245 0
-245 0 0 245 0 245 245 0 245 0 0 490 0 490 -245 0 -245 0 0 -490z"/>
<path d="M8780 6100 l0 -730 245 0 245 0 0 485 0 485 240 0 240 0 0 245 0 245
-485 0 -485 0 0 -730z"/>
<path d="M1950 3655 l0 -1705 1705 0 1705 0 0 1705 0 1705 -1705 0 -1705 0 0
-1705z m2928 3 l2 -1218 -1220 0 -1220 0 0 1220 0 1220 1218 -2 1217 -3 3
-1217z"/>
<path d="M2930 3660 l0 -730 730 0 730 0 0 730 0 730 -730 0 -730 0 0 -730z"/>
<path d="M8290 5120 l0 -240 -240 0 -240 0 0 -245 0 -245 240 0 240 0 2 243 3
242 243 3 242 2 0 240 0 240 -245 0 -245 0 0 -240z"/>
<path d="M15924 3040 c-29 -12 -64 -58 -64 -85 0 -30 28 -40 52 -18 17 15 20
15 28 3 6 -8 10 -118 10 -243 0 -251 5 -278 61 -329 62 -57 195 -74 329 -42
67 15 169 66 183 90 13 22 24 16 30 -15 4 -18 21 -41 43 -58 34 -25 45 -28
115 -28 65 0 82 4 108 23 36 26 39 27 63 5 25 -22 49 -27 130 -28 59 0 72 4
111 32 l45 31 19 -20 c26 -29 75 -48 127 -48 58 0 93 14 134 53 l32 31 33 -31
c59 -55 151 -69 222 -33 22 11 41 20 42 20 2 0 3 -13 3 -30 0 -22 -5 -30 -18
-30 -31 0 -165 -49 -204 -75 -51 -34 -72 -76 -65 -134 13 -119 198 -170 319
-88 41 29 74 96 82 169 7 54 9 59 44 78 54 29 75 50 97 99 l19 43 -22 19 c-29
23 -47 16 -94 -35 -56 -61 -61 -47 -54 175 5 169 4 189 -12 207 -26 31 -56 35
-83 13 -22 -18 -25 -29 -30 -133 -9 -156 -14 -170 -71 -193 -33 -13 -47 -14
-69 -5 -44 19 -60 73 -58 201 2 117 -2 130 -48 144 -16 4 -29 0 -46 -17 -21
-21 -25 -37 -30 -120 -3 -63 -12 -112 -25 -141 -22 -48 -28 -54 -73 -67 -24
-7 -34 -5 -48 9 -18 18 -18 36 -13 273 2 140 2 266 -1 280 -10 37 -48 54 -86
38 -17 -7 -32 -13 -33 -14 0 0 -4 -107 -7 -236 -6 -215 -9 -239 -29 -282 -25
-53 -48 -70 -100 -71 -68 -2 -85 59 -66 242 l7 61 39 0 c51 0 78 15 78 43 0
35 -19 47 -72 47 l-48 0 0 73 c0 58 -4 77 -17 89 -28 23 -51 28 -78 16 -29
-13 -45 -55 -45 -121 0 -40 -4 -53 -24 -68 -16 -13 -22 -26 -19 -39 6 -22 36
-43 47 -33 9 9 6 -136 -4 -182 -15 -72 -19 -85 -26 -96 -11 -18 -74 -40 -95
-34 -35 11 -41 40 -37 197 3 147 3 150 -21 169 -32 26 -56 24 -80 -7 -15 -19
-21 -41 -21 -79 0 -107 -54 -211 -132 -251 -32 -17 -34 -11 -12 31 26 48 24
160 -4 217 -34 68 -97 108 -171 108 -34 0 -73 -8 -98 -20 l-43 -19 0 90 c0
100 -14 147 -51 170 -28 17 -76 22 -105 9z m352 -383 c12 -22 15 -50 12 -100
-3 -63 -7 -72 -36 -98 -26 -24 -41 -29 -82 -29 -57 0 -82 19 -90 73 -13 79 18
146 85 183 47 27 88 17 111 -29z m1514 -492 c0 -49 -18 -82 -55 -100 -40 -18
-109 -20 -122 -2 -36 46 -10 81 85 114 89 30 92 29 92 -12z"/>
<path d="M16573 2998 c-45 -21 -47 -94 -4 -117 48 -26 101 4 101 57 0 47 -54
81 -97 60z"/>
<path d="M7810 2195 l0 -245 485 0 485 0 0 245 0 245 -485 0 -485 0 0 -245z"/>
<path d="M9270 2195 l0 -245 240 0 240 0 0 245 0 245 -240 0 -240 0 0 -245z"/>
</g>
</svg>
