<svg width="270" height="270" viewBox="0 0 270 270" fill="none" xmlns="http://www.w3.org/2000/svg">
<circle cx="135" cy="135" r="135" fill="#8E84CC"/>
<path opacity="0.77" d="M269 135.5C269 209.506 209.57 269 135.654 269C61.7387 269 1 209.006 1 135C1 60.9938 61.7387 1 135.654 1C209.57 1 269 61.4938 269 135.5Z" fill="url(#paint0_radial_130_15)"/>
<path d="M1 135C1 209.006 60.9938 269 135 269C135 255.517 135 209.006 135 135C135 60.9938 135 10.8712 135 1C60.9938 1 1 60.9938 1 135Z" fill="#C298FF"/>
<path d="M135 1V269" stroke="url(#paint1_linear_130_15)" stroke-width="3"/>
<path d="M36.321 137V120.2H44.529C46.641 120.2 48.225 120.6 49.281 121.4C50.353 122.2 50.889 123.256 50.889 124.568C50.889 125.448 50.673 126.216 50.241 126.872C49.809 127.512 49.217 128.008 48.465 128.36C47.713 128.712 46.849 128.888 45.873 128.888L46.329 127.904C47.385 127.904 48.321 128.08 49.137 128.432C49.953 128.768 50.585 129.272 51.033 129.944C51.497 130.616 51.729 131.44 51.729 132.416C51.729 133.856 51.161 134.984 50.025 135.8C48.889 136.6 47.217 137 45.009 137H36.321ZM40.185 134.072H44.721C45.729 134.072 46.489 133.912 47.001 133.592C47.529 133.256 47.793 132.728 47.793 132.008C47.793 131.304 47.529 130.784 47.001 130.448C46.489 130.096 45.729 129.92 44.721 129.92H39.897V127.088H44.049C44.993 127.088 45.713 126.928 46.209 126.608C46.721 126.272 46.977 125.768 46.977 125.096C46.977 124.44 46.721 123.952 46.209 123.632C45.713 123.296 44.993 123.128 44.049 123.128H40.185V134.072ZM54.4086 137V124.088H58.1526V137H54.4086ZM56.2806 122.288C55.5926 122.288 55.0326 122.088 54.6006 121.688C54.1686 121.288 53.9526 120.792 53.9526 120.2C53.9526 119.608 54.1686 119.112 54.6006 118.712C55.0326 118.312 55.5926 118.112 56.2806 118.112C56.9686 118.112 57.5286 118.304 57.9606 118.688C58.3926 119.056 58.6086 119.536 58.6086 120.128C58.6086 120.752 58.3926 121.272 57.9606 121.688C57.5446 122.088 56.9846 122.288 56.2806 122.288ZM67.6993 141.848C66.4833 141.848 65.3073 141.696 64.1713 141.392C63.0513 141.104 62.1153 140.664 61.3633 140.072L62.8513 137.384C63.3953 137.832 64.0833 138.184 64.9153 138.44C65.7633 138.712 66.5953 138.848 67.4113 138.848C68.7393 138.848 69.6993 138.552 70.2913 137.96C70.8993 137.368 71.2033 136.488 71.2033 135.32V133.376L71.4433 130.136L71.3953 126.872V124.088H74.9473V134.84C74.9473 137.24 74.3233 139.008 73.0753 140.144C71.8273 141.28 70.0353 141.848 67.6993 141.848ZM67.1233 136.376C65.9233 136.376 64.8353 136.12 63.8593 135.608C62.8993 135.08 62.1233 134.352 61.5313 133.424C60.9553 132.48 60.6673 131.384 60.6673 130.136C60.6673 128.872 60.9553 127.776 61.5313 126.848C62.1233 125.904 62.8993 125.176 63.8593 124.664C64.8353 124.152 65.9233 123.896 67.1233 123.896C68.2113 123.896 69.1713 124.12 70.0033 124.568C70.8353 125 71.4833 125.68 71.9473 126.608C72.4113 127.52 72.6433 128.696 72.6433 130.136C72.6433 131.56 72.4113 132.736 71.9473 133.664C71.4833 134.576 70.8353 135.256 70.0033 135.704C69.1713 136.152 68.2113 136.376 67.1233 136.376ZM67.8673 133.304C68.5233 133.304 69.1073 133.176 69.6193 132.92C70.1313 132.648 70.5313 132.272 70.8193 131.792C71.1073 131.312 71.2513 130.76 71.2513 130.136C71.2513 129.496 71.1073 128.944 70.8193 128.48C70.5313 128 70.1313 127.632 69.6193 127.376C69.1073 127.104 68.5233 126.968 67.8673 126.968C67.2113 126.968 66.6273 127.104 66.1153 127.376C65.6033 127.632 65.1953 128 64.8913 128.48C64.6033 128.944 64.4593 129.496 64.4593 130.136C64.4593 130.76 64.6033 131.312 64.8913 131.792C65.1953 132.272 65.6033 132.648 66.1153 132.92C66.6273 133.176 67.2113 133.304 67.8673 133.304ZM35.5835 166L30.0875 149.2H34.1195L38.8955 164.08H36.8795L41.8715 149.2H45.4715L50.2715 164.08H48.3275L53.2235 149.2H56.9435L51.4475 166H47.2715L43.0235 152.944H44.1275L39.7595 166H35.5835ZM59.0609 166V153.088H62.8049V166H59.0609ZM60.9329 151.288C60.2449 151.288 59.6849 151.088 59.2529 150.688C58.8209 150.288 58.6049 149.792 58.6049 149.2C58.6049 148.608 58.8209 148.112 59.2529 147.712C59.6849 147.312 60.2449 147.112 60.9329 147.112C61.6209 147.112 62.1809 147.304 62.6129 147.688C63.0449 148.056 63.2609 148.536 63.2609 149.128C63.2609 149.752 63.0449 150.272 62.6129 150.688C62.1969 151.088 61.6369 151.288 60.9329 151.288ZM74.1277 152.896C75.1517 152.896 76.0637 153.104 76.8637 153.52C77.6797 153.92 78.3197 154.544 78.7837 155.392C79.2477 156.224 79.4797 157.296 79.4797 158.608V166H75.7357V159.184C75.7357 158.144 75.5037 157.376 75.0397 156.88C74.5917 156.384 73.9517 156.136 73.1197 156.136C72.5277 156.136 71.9917 156.264 71.5117 156.52C71.0477 156.76 70.6797 157.136 70.4077 157.648C70.1517 158.16 70.0237 158.816 70.0237 159.616V166H66.2797V153.088H69.8557V156.664L69.1837 155.584C69.6477 154.72 70.3117 154.056 71.1757 153.592C72.0397 153.128 73.0237 152.896 74.1277 152.896Z" fill="white"/>
<path d="M177.939 137V123.368H172.563V120.2H187.203V123.368H181.827V137H177.939ZM196.879 123.896C197.903 123.896 198.815 124.104 199.615 124.52C200.431 124.92 201.071 125.544 201.535 126.392C201.999 127.224 202.231 128.296 202.231 129.608V137H198.487V130.184C198.487 129.144 198.255 128.376 197.791 127.88C197.343 127.384 196.703 127.136 195.871 127.136C195.279 127.136 194.743 127.264 194.263 127.52C193.799 127.76 193.431 128.136 193.159 128.648C192.903 129.16 192.775 129.816 192.775 130.616V137H189.031V119.192H192.775V127.664L191.935 126.584C192.399 125.72 193.063 125.056 193.927 124.592C194.791 124.128 195.775 123.896 196.879 123.896ZM213.545 137V134.48L213.305 133.928V129.416C213.305 128.616 213.057 127.992 212.561 127.544C212.081 127.096 211.337 126.872 210.329 126.872C209.641 126.872 208.961 126.984 208.289 127.208C207.633 127.416 207.073 127.704 206.609 128.072L205.265 125.456C205.969 124.96 206.817 124.576 207.809 124.304C208.801 124.032 209.809 123.896 210.833 123.896C212.801 123.896 214.329 124.36 215.417 125.288C216.505 126.216 217.049 127.664 217.049 129.632V137H213.545ZM209.609 137.192C208.601 137.192 207.737 137.024 207.017 136.688C206.297 136.336 205.745 135.864 205.361 135.272C204.977 134.68 204.785 134.016 204.785 133.28C204.785 132.512 204.969 131.84 205.337 131.264C205.721 130.688 206.321 130.24 207.137 129.92C207.953 129.584 209.017 129.416 210.329 129.416H213.761V131.6H210.737C209.857 131.6 209.249 131.744 208.913 132.032C208.593 132.32 208.433 132.68 208.433 133.112C208.433 133.592 208.617 133.976 208.985 134.264C209.369 134.536 209.889 134.672 210.545 134.672C211.169 134.672 211.729 134.528 212.225 134.24C212.721 133.936 213.081 133.496 213.305 132.92L213.881 134.648C213.609 135.48 213.113 136.112 212.393 136.544C211.673 136.976 210.745 137.192 209.609 137.192ZM228.285 123.896C229.309 123.896 230.221 124.104 231.021 124.52C231.837 124.92 232.477 125.544 232.941 126.392C233.405 127.224 233.637 128.296 233.637 129.608V137H229.893V130.184C229.893 129.144 229.661 128.376 229.197 127.88C228.749 127.384 228.109 127.136 227.277 127.136C226.685 127.136 226.149 127.264 225.669 127.52C225.205 127.76 224.837 128.136 224.565 128.648C224.309 129.16 224.181 129.816 224.181 130.616V137H220.437V124.088H224.013V127.664L223.341 126.584C223.805 125.72 224.469 125.056 225.333 124.592C226.197 124.128 227.181 123.896 228.285 123.896ZM240.127 134.36L240.223 129.8L246.247 124.088H250.711L244.927 129.968L242.983 131.552L240.127 134.36ZM237.031 137V119.192H240.775V137H237.031ZM246.655 137L242.287 131.576L244.639 128.672L251.191 137H246.655ZM194.479 166V159.136L195.367 161.488L187.975 149.2H192.103L197.767 158.632H195.391L201.079 149.2H204.895L197.503 161.488L198.367 159.136V166H194.479ZM210.972 166.192C209.596 166.192 208.372 165.904 207.3 165.328C206.244 164.752 205.404 163.968 204.78 162.976C204.172 161.968 203.868 160.824 203.868 159.544C203.868 158.248 204.172 157.104 204.78 156.112C205.404 155.104 206.244 154.32 207.3 153.76C208.372 153.184 209.596 152.896 210.972 152.896C212.332 152.896 213.548 153.184 214.62 153.76C215.692 154.32 216.532 155.096 217.14 156.088C217.748 157.08 218.052 158.232 218.052 159.544C218.052 160.824 217.748 161.968 217.14 162.976C216.532 163.968 215.692 164.752 214.62 165.328C213.548 165.904 212.332 166.192 210.972 166.192ZM210.972 163.12C211.596 163.12 212.156 162.976 212.652 162.688C213.148 162.4 213.54 161.992 213.828 161.464C214.116 160.92 214.26 160.28 214.26 159.544C214.26 158.792 214.116 158.152 213.828 157.624C213.54 157.096 213.148 156.688 212.652 156.4C212.156 156.112 211.596 155.968 210.972 155.968C210.348 155.968 209.788 156.112 209.292 156.4C208.796 156.688 208.396 157.096 208.092 157.624C207.804 158.152 207.66 158.792 207.66 159.544C207.66 160.28 207.804 160.92 208.092 161.464C208.396 161.992 208.796 162.4 209.292 162.688C209.788 162.976 210.348 163.12 210.972 163.12ZM226.003 166.192C224.931 166.192 223.971 165.984 223.123 165.568C222.291 165.152 221.643 164.52 221.179 163.672C220.715 162.808 220.483 161.712 220.483 160.384V153.088H224.227V159.832C224.227 160.904 224.451 161.696 224.899 162.208C225.363 162.704 226.011 162.952 226.843 162.952C227.419 162.952 227.931 162.832 228.379 162.592C228.827 162.336 229.179 161.952 229.435 161.44C229.691 160.912 229.819 160.256 229.819 159.472V153.088H233.563V166H230.011V162.448L230.659 163.48C230.227 164.376 229.587 165.056 228.739 165.52C227.907 165.968 226.995 166.192 226.003 166.192Z" fill="white"/>
<defs>
<radialGradient id="paint0_radial_130_15" cx="0" cy="0" r="1" gradientUnits="userSpaceOnUse" gradientTransform="translate(135.654 138.925) rotate(90) scale(130.075 129.916)">
<stop offset="0.612768" stop-color="#5E06DD" stop-opacity="0"/>
<stop offset="1" stop-color="#C85AFF"/>
</radialGradient>
<linearGradient id="paint1_linear_130_15" x1="135.5" y1="1.50281" x2="135.5" y2="269.6" gradientUnits="userSpaceOnUse">
<stop stop-color="#8764DF"/>
<stop offset="1" stop-color="#E9C4FF"/>
</linearGradient>
</defs>
</svg>
