<svg width="120" height="36" viewBox="0 0 120 36" fill="none" xmlns="http://www.w3.org/2000/svg">
<path d="M5.59661 1.67265C5.75673 0.707606 6.59141 0 7.56964 0H117.641C118.876 0 119.816 1.10872 119.614 2.32735L115.662 26.1455C115.502 27.1106 114.667 27.8182 113.689 27.8182H14.5493C13.815 27.8182 13.0949 28.0203 12.4678 28.4024L1.8356 34.8814C1.10951 35.3239 0.197566 34.7158 0.326856 33.8754L1.25874 27.8182L5.59661 1.67265Z" fill="url(#paint0_linear_46_3)"/>
<path d="M17.078 8.2H19.29V16.068H23.49V18H17.078V8.2ZM29.7726 10.468H31.9146V18H29.7726V16.67C29.2546 17.622 28.3866 18.084 27.2526 18.084C25.5866 18.084 24.5366 16.978 24.5366 15.2V10.468H26.6926V14.584C26.6926 15.536 27.2386 16.11 28.1066 16.11C29.1426 16.096 29.7726 15.284 29.7726 14.192V10.468ZM39.0288 13.03C38.6228 12.526 38.0488 12.218 37.3068 12.232C36.2568 12.232 35.5148 13.044 35.5148 14.248C35.5148 15.466 36.2568 16.292 37.3068 16.292C38.0768 16.292 38.6788 15.998 39.0568 15.41L40.5408 16.418C39.9108 17.468 38.7348 18.084 37.1948 18.084C34.9128 18.084 33.3588 16.544 33.3588 14.262C33.3588 11.952 34.9128 10.398 37.2228 10.398C38.6648 10.398 39.8128 10.972 40.4848 11.98L39.0288 13.03ZM46.9035 18L45.0835 14.934L44.1175 15.956V18H41.9615V7.612H44.1175V13.324L46.8755 10.482H49.3255L46.5675 13.38L49.4515 18H46.9035ZM54.1588 18.84C53.6268 20.17 52.7028 20.814 51.4008 20.814C50.6028 20.814 49.9728 20.59 49.3567 20.086L50.2668 18.532C50.6028 18.812 50.8968 18.938 51.2468 18.938C51.6948 18.938 52.0308 18.714 52.2408 18.266L52.4508 17.846L49.3287 10.468H51.5548L53.5288 15.648L55.3068 10.468H57.4628L54.1588 18.84ZM61.5684 8.2H63.9484L66.0064 15.592L68.0504 8.2H70.2204L72.2924 15.592L74.3364 8.2H76.6044L73.3564 18H71.0744L69.1004 11.014L67.0844 18H64.8024L61.5684 8.2ZM82.364 10.384C84.058 10.384 85.136 11.504 85.136 13.268V18H82.98V13.898C82.98 12.946 82.42 12.358 81.496 12.358C80.418 12.372 79.76 13.184 79.76 14.29V18H77.604V7.612H79.76V11.798C80.292 10.86 81.188 10.398 82.364 10.384ZM90.2153 10.398C92.8613 10.398 94.0933 12.148 93.9113 14.892H88.5073C88.7593 15.844 89.4873 16.404 90.4533 16.404C91.1673 16.404 91.8393 16.124 92.3573 15.606L93.4913 16.754C92.7353 17.594 91.6293 18.084 90.2713 18.084C87.8633 18.084 86.3373 16.544 86.3373 14.262C86.3373 11.938 87.9193 10.398 90.2153 10.398ZM88.4653 13.618H91.8953C91.8673 12.624 91.2233 11.98 90.2293 11.98C89.2773 11.98 88.6333 12.624 88.4653 13.618ZM98.5688 10.398C101.215 10.398 102.447 12.148 102.265 14.892H96.8608C97.1128 15.844 97.8408 16.404 98.8068 16.404C99.5208 16.404 100.193 16.124 100.711 15.606L101.845 16.754C101.089 17.594 99.9828 18.084 98.6248 18.084C96.2168 18.084 94.6908 16.544 94.6908 14.262C94.6908 11.938 96.2728 10.398 98.5688 10.398ZM96.8188 13.618H100.249C100.221 12.624 99.5768 11.98 98.5828 11.98C97.6308 11.98 96.9868 12.624 96.8188 13.618ZM103.758 7.612H105.914V18H103.758V7.612Z" fill="white"/>
<defs>
<linearGradient id="paint0_linear_46_3" x1="31.7143" y1="-2.01708e-06" x2="74.1354" y2="63.9308" gradientUnits="userSpaceOnUse">
<stop offset="0.0995966" stop-color="#FF5EA7"/>
<stop offset="0.543269" stop-color="#C85AFF"/>
<stop offset="1" stop-color="#5A74FF"/>
</linearGradient>
</defs>
</svg>
